<svg width="84" height="81" viewBox="0 0 84 81" fill="none" xmlns="http://www.w3.org/2000/svg">
<path fill-rule="evenodd" clip-rule="evenodd" d="M82.7 56.8C82.4 64.4 82.1 72 81.9 79.6C79.8 79.1 79.8 79.1 74.8 79.1C74.6 79.4 74.3999 79.7 74.1999 80.1C61.3999 78.4 47.1 78.4 34.4 78.8C29.1 78.7 14.1 80.8 10.2 75.8C14 72.1 44.0999 75.9 53.5999 74.8C53.8999 74.3 54.1999 73.8 54.5999 73.3C57.0999 74 57.1 74 58.5 75.4C65 75.3 71.6 75.3 78.1 75.3C79.8 74 79.3 36.4 79.4 34.1C83.3 30.3 77 11.8 82.8 10.8C83.8 12.1 83.4 21.6 83.3 23.8C82.3 24.8 82.6 34.8 82.5 37.3C83.9 38.7 83 50.5 83 53.4C82.8 53.6 82.5 53.8 82.3 54C82.5 54.9 82.6 55.9 82.7 56.8Z" fill="#D02F4C"/>
<path fill-rule="evenodd" clip-rule="evenodd" d="M1.5 71.9C0.900002 37.6 1.4 36.5 1 8.7C-0.399998 5.9 0.600002 2.3 3 0.800003C26.7 3.9 51.9 2.5 76.1 4.3C76.1 4.7 76.1 5.1 76.1 5.6C61 6 46 6.3 31 6.7C30.9 7 30.8 7.2 30.7 7.5C24.2 7 17.7 6.6 11.2 6.2C8.7 7 7.9 7.1 5.6 6.7C5.4 12.9 5.4 12.9 6.1 21.2C5.8 21.2 5.4 21.2 5.1 21.2C5 24.7 6.8 31.1 4.7 34.3C5 34.8 5.3 35.4 5.6 35.9C3.9 41.1 4.7 53.9 4.8 59.4C3.5 60.7 3.9 68.7 3.8 71.4C3 71.6 2.2 71.7 1.5 71.9Z" fill="#D02F4C"/>
<path fill-rule="evenodd" clip-rule="evenodd" d="M9.40002 46.9C9.40002 42.2 9.50002 37.5 9.50002 32.7C19.6 33.9 29.2 36.7 39.8 37.1C40.5 29.4 36.7 17.4 35.4 9.7C40.2 9.7 45 9.8 49.9 9.8C49.8 18.7 45.1 27.4 45.5 37.2C53.8 36.9 54.5 36.3 62.2 35.7C63.3 34.7 73.2 33.2 75.4 33.2C75.4 37.9 75.3 42.6 75.3 47.4C65.7 47.3 55 43.3 45.1 42.6C45.9 52.4 47.4 62 49.1 71.9C44.3 71.9 39.6 71.9 34.9 71.9C34.6 71.2 37.9 52.8 39.3 51.5C39.4 48.6 39.6 45.7 39.8 42.8C29.1 42.5 19.6 45.3 9.40002 46.9Z" fill="#14518B"/>
<path fill-rule="evenodd" clip-rule="evenodd" d="M56 62.7C53 61.2 49.5 49.3 49.7 46.8C53.7 46.4 61.6 50.8 65.8 52.5C65.8 52.9 65.8 53.3 65.8 53.8C65.2 53.9 64.6 53.9 64 54C63.7 56.6 62.4 59.6 61.2 62.2C59.6 61.2 59.6 61.2 57.3 60.9C57.3 61.5 57.3 62.2 57.3 62.8C56.8 62.7 56.4 62.7 56 62.7Z" fill="#D02F4C"/>
<path fill-rule="evenodd" clip-rule="evenodd" d="M28.3 61.8C28.3 61.1 28.3 60.5 28.3 59.9C26.3 60.1 23.4 58.9 22.8 57.4C21.9 57.3 21.1 57.3 20.2 57.2C21.2 55.2 21.7 54.7 21.2 52.7C20.8 52.5 20.4 52.4 20 52.2C24.7 49.9 30.3 46.1 35.8 46.5C36.8 49.3 30.4 60.9 28.3 61.8Z" fill="#D02F4C"/>
<path fill-rule="evenodd" clip-rule="evenodd" d="M34 33.6C30.9 32.4 22.9 30.2 21.5 28C22.2 27.8 22.8 27.6 23.5 27.4C22.4 26 22.4 26 21.9 24C24.6 22.6 27.4 21.2 30.1 19.8C30.4 20.1 30.8 20.3 31.2 20.6C31.2 21 31.2 21.4 31.2 21.9C34.3 24.9 35.3 29.2 36.2 33.5C35.5 33.6 34.7 33.6 34 33.6Z" fill="#D02F4C"/>
<path fill-rule="evenodd" clip-rule="evenodd" d="M49.4 33.7C50.7 28.2 52.6 24.7 55.3 19.7C56.3 19.9 56.3 19.9 56.6 20.7C57.6 20.5 58.6 20.3 59.7 20.2C62.1 24.8 62.1 26.1 63.8 28.4C59 32.3 56.8 32.3 49.4 33.7Z" fill="#D02F4C"/>
</svg>
