<svg width="208" height="81" viewBox="0 0 208 81" fill="none" xmlns="http://www.w3.org/2000/svg">
<path fill-rule="evenodd" clip-rule="evenodd" d="M107.4 40.8C110 40.8 111.5 39.7 112.7 38.1L110.2 36.3C109.5 37.2 108.8 37.7 107.5 37.7C105.8 37.7 104.7 36.3 104.7 34.5C104.7 32.8 105.9 31.4 107.5 31.4C108.6 31.4 109.4 31.9 110.1 32.8L112.6 30.9C111.5 29.4 110 28.4 107.6 28.4C104 28.4 101.3 31.1 101.3 34.6C101.3 38.2 104 40.8 107.4 40.8Z" fill="#14518B"/>
<path fill-rule="evenodd" clip-rule="evenodd" d="M113.2 40.5H116.7L117.6 38.4H122.2L123.1 40.5H126.6L121.5 28.5H118.3L113.2 40.5ZM118.5 35.8L119.8 32.4L121.1 35.8H118.5ZM118.5 27.8H120.8L123.3 25.6L120.3 24.6L118.5 27.8Z" fill="#14518B"/>
<path fill-rule="evenodd" clip-rule="evenodd" d="M127.6 40.5H130.9V36.9H132.3L134.7 40.5H138.5L135.7 36.4C137.2 35.8 138.1 34.6 138.1 32.7C138.1 31.5 137.7 30.6 137 29.9C136.2 29.1 134.9 28.6 133.1 28.6H127.5V40.5H127.6ZM130.9 34.3V31.4H133.1C134.2 31.4 134.9 31.9 134.9 32.8C134.9 33.7 134.3 34.2 133.1 34.2H130.9V34.3Z" fill="#14518B"/>
<path d="M143.2 28.6H139.9V40.5H143.2V28.6Z" fill="#14518B"/>
<path fill-rule="evenodd" clip-rule="evenodd" d="M148.3 40.5H151.6V31.5H155.2V28.6H144.8V31.5H148.3V40.5Z" fill="#14518B"/>
<path fill-rule="evenodd" clip-rule="evenodd" d="M154.2 40.5H157.7L158.6 38.4H163.2L164.1 40.5H167.6L162.5 28.5H159.3L154.2 40.5ZM159.4 35.8L160.7 32.4L162 35.8H159.4Z" fill="#14518B"/>
<path fill-rule="evenodd" clip-rule="evenodd" d="M173.1 40.7C176 40.7 177.9 39.3 177.9 36.8C177.9 34.6 176.2 33.7 173.5 33.1C171.9 32.7 171.4 32.5 171.4 31.9C171.4 31.5 171.8 31.1 172.6 31.1C173.7 31.1 174.8 31.5 175.9 32.3L177.5 30C176.2 29 174.6 28.4 172.6 28.4C169.7 28.4 168 30 168 32.2C168 34.6 170 35.4 172.5 35.9C174.1 36.3 174.5 36.5 174.5 37C174.5 37.5 174 37.8 173.1 37.8C171.7 37.8 170.4 37.3 169.2 36.4L167.4 38.6C169 40.1 171 40.7 173.1 40.7Z" fill="#14518B"/>
<path fill-rule="evenodd" clip-rule="evenodd" d="M100.8 56H104.3L105.2 53.9H109.8L110.7 56H114.2L109 44H105.8L100.8 56ZM106 51.3L107.3 47.9L108.6 51.3H106Z" fill="#14518B"/>
<path fill-rule="evenodd" clip-rule="evenodd" d="M115.2 56H118.5V52.4H119.9L122.3 56H126.1L123.3 51.9C124.8 51.3 125.7 50.1 125.7 48.2C125.7 47 125.3 46.1 124.6 45.4C123.8 44.6 122.5 44.1 120.7 44.1H115.1V56H115.2ZM118.5 49.8V46.9H120.7C121.8 46.9 122.5 47.4 122.5 48.3C122.5 49.2 121.9 49.7 120.7 49.7H118.5V49.8Z" fill="#14518B"/>
<path fill-rule="evenodd" clip-rule="evenodd" d="M133.5 56.2C135.7 56.2 137.4 55.4 138.7 54.4V49H133.2V51.4H135.5V52.8C135 53.1 134.4 53.3 133.6 53.3C131.7 53.3 130.4 51.9 130.4 50C130.4 48.2 131.7 46.7 133.4 46.7C134.6 46.7 135.4 47.1 136.3 47.8L138.2 45.5C136.9 44.4 135.5 43.8 133.4 43.8C129.7 43.8 127 46.5 127 50C127 53.6 129.8 56.2 133.5 56.2Z" fill="#14518B"/>
<path fill-rule="evenodd" clip-rule="evenodd" d="M140.5 56H150.2V53.1H143.8V51.3H149.5V48.7H143.8V46.9H150.1V44.1H140.5V56Z" fill="#14518B"/>
<path fill-rule="evenodd" clip-rule="evenodd" d="M151.9 56H155.1V49.4L160.2 56H163.1V44.1H159.8V50.3L154.9 44.1H151.9V56Z" fill="#14518B"/>
<path fill-rule="evenodd" clip-rule="evenodd" d="M168.1 56H171.4V46.9H175V44.1H164.5V46.9H168.1V56Z" fill="#14518B"/>
<path d="M179.8 44.1H176.5V56H179.8V44.1Z" fill="#14518B"/>
<path fill-rule="evenodd" clip-rule="evenodd" d="M182 56H185.2V49.4L190.3 56H193.2V44.1H190V50.3L185.1 44.1H182V56Z" fill="#14518B"/>
<path fill-rule="evenodd" clip-rule="evenodd" d="M194.4 56H197.9L198.8 53.9H203.4L204.3 56H207.8L202.7 44H199.5L194.4 56ZM199.7 51.3L201 47.9L202.3 51.3H199.7Z" fill="#14518B"/>
<path fill-rule="evenodd" clip-rule="evenodd" d="M82.7 56.8C82.4 64.4 82.1 72 81.9 79.6C79.8 79.1 79.8 79.1 74.8 79.1C74.6 79.4 74.3999 79.7 74.1999 80.1C61.3999 78.4 47.1 78.4 34.4 78.8C29.1 78.7 14.1 80.8 10.2 75.8C14 72.1 44.0999 75.9 53.5999 74.8C53.8999 74.3 54.1999 73.8 54.5999 73.3C57.0999 74 57.1 74 58.5 75.4C65 75.3 71.6 75.3 78.1 75.3C79.8 74 79.3 36.4 79.4 34.1C83.3 30.3 77 11.8 82.8 10.8C83.8 12.1 83.4 21.6 83.3 23.8C82.3 24.8 82.6 34.8 82.5 37.3C83.9 38.7 83 50.5 83 53.4C82.8 53.6 82.5 53.8 82.3 54C82.5 54.9 82.6 55.9 82.7 56.8Z" fill="#D02F4C"/>
<path fill-rule="evenodd" clip-rule="evenodd" d="M1.5 71.9C0.900002 37.6 1.4 36.5 1 8.7C-0.399998 5.9 0.600002 2.3 3 0.800003C26.7 3.9 51.9 2.5 76.1 4.3C76.1 4.7 76.1 5.1 76.1 5.6C61 6 46 6.3 31 6.7C30.9 7 30.8 7.2 30.7 7.5C24.2 7 17.7 6.6 11.2 6.2C8.7 7 7.9 7.1 5.6 6.7C5.4 12.9 5.4 12.9 6.1 21.2C5.8 21.2 5.4 21.2 5.1 21.2C5 24.7 6.8 31.1 4.7 34.3C5 34.8 5.3 35.4 5.6 35.9C3.9 41.1 4.7 53.9 4.8 59.4C3.5 60.7 3.9 68.7 3.8 71.4C3 71.6 2.2 71.7 1.5 71.9Z" fill="#D02F4C"/>
<path fill-rule="evenodd" clip-rule="evenodd" d="M9.40002 46.9C9.40002 42.2 9.50002 37.5 9.50002 32.7C19.6 33.9 29.2 36.7 39.8 37.1C40.5 29.4 36.7 17.4 35.4 9.7C40.2 9.7 45 9.8 49.9 9.8C49.8 18.7 45.1 27.4 45.5 37.2C53.8 36.9 54.5 36.3 62.2 35.7C63.3 34.7 73.2 33.2 75.4 33.2C75.4 37.9 75.3 42.6 75.3 47.4C65.7 47.3 55 43.3 45.1 42.6C45.9 52.4 47.4 62 49.1 71.9C44.3 71.9 39.6 71.9 34.9 71.9C34.6 71.2 37.9 52.8 39.3 51.5C39.4 48.6 39.6 45.7 39.8 42.8C29.1 42.5 19.6 45.3 9.40002 46.9Z" fill="#14518B"/>
<path fill-rule="evenodd" clip-rule="evenodd" d="M56 62.7C53 61.2 49.5 49.3 49.7 46.8C53.7 46.4 61.6 50.8 65.8 52.5C65.8 52.9 65.8 53.3 65.8 53.8C65.2 53.9 64.6 53.9 64 54C63.7 56.6 62.4 59.6 61.2 62.2C59.6 61.2 59.6 61.2 57.3 60.9C57.3 61.5 57.3 62.2 57.3 62.8C56.8 62.7 56.4 62.7 56 62.7Z" fill="#D02F4C"/>
<path fill-rule="evenodd" clip-rule="evenodd" d="M28.3 61.8C28.3 61.1 28.3 60.5 28.3 59.9C26.3 60.1 23.4 58.9 22.8 57.4C21.9 57.3 21.1 57.3 20.2 57.2C21.2 55.2 21.7 54.7 21.2 52.7C20.8 52.5 20.4 52.4 20 52.2C24.7 49.9 30.3 46.1 35.8 46.5C36.8 49.3 30.4 60.9 28.3 61.8Z" fill="#D02F4C"/>
<path fill-rule="evenodd" clip-rule="evenodd" d="M34 33.6C30.9 32.4 22.9 30.2 21.5 28C22.2 27.8 22.8 27.6 23.5 27.4C22.4 26 22.4 26 21.9 24C24.6 22.6 27.4 21.2 30.1 19.8C30.4 20.1 30.8 20.3 31.2 20.6C31.2 21 31.2 21.4 31.2 21.9C34.3 24.9 35.3 29.2 36.2 33.5C35.5 33.6 34.7 33.6 34 33.6Z" fill="#D02F4C"/>
<path fill-rule="evenodd" clip-rule="evenodd" d="M49.4 33.7C50.7 28.2 52.6 24.7 55.3 19.7C56.3 19.9 56.3 19.9 56.6 20.7C57.6 20.5 58.6 20.3 59.7 20.2C62.1 24.8 62.1 26.1 63.8 28.4C59 32.3 56.8 32.3 49.4 33.7Z" fill="#D02F4C"/>
</svg>
